<svg xmlns="http://www.w3.org/2000/svg" width="150" height="150" viewBox="0 0 150 150"><g id="Gruppe_114" data-name="Gruppe 114" transform="translate(3250 8176)"><path id="car-circle-bolt-solid" d="M31.688,52.016,25.57,69.5H94.43L88.313,52.016A7.505,7.505,0,0,0,81.234,47H38.766A7.505,7.505,0,0,0,31.688,52.016ZM9.281,70.625l8.25-23.555A22.505,22.505,0,0,1,38.766,32H81.234a22.505,22.505,0,0,1,21.234,15.07L110.461,69.9A41.267,41.267,0,0,0,75,110.75a41.715,41.715,0,0,0,.68,7.5H22.5V129.5A7.492,7.492,0,0,1,15,137H7.5A7.492,7.492,0,0,1,0,129.5v-45A15.028,15.028,0,0,1,9.281,70.625ZM30,92a7.5,7.5,0,1,0-7.5,7.5A7.492,7.492,0,0,0,30,92Zm86.25,52.5A33.75,33.75,0,1,1,150,110.75,33.759,33.759,0,0,1,116.25,144.5Zm11.227-52.734a2.824,2.824,0,0,0-3.539-.141l-22.5,16.875a2.84,2.84,0,0,0-.984,3.141,2.8,2.8,0,0,0,2.672,1.922h8.344l-7.055,12.7a2.821,2.821,0,0,0,4.148,3.633l22.5-16.875a2.84,2.84,0,0,0,.984-3.141,2.8,2.8,0,0,0-2.672-1.922h-8.344l7.055-12.7A2.8,2.8,0,0,0,127.477,91.766Z" transform="translate(-3250 -8189)"/><rect id="Rechteck_44" data-name="Rechteck 44" width="150" height="150" transform="translate(-3250 -8176)" fill="none"/></g></svg>